<svg width="22" height="24" viewBox="0 0 22 24" fill="none" xmlns="http://www.w3.org/2000/svg">
<path d="M3.61935 13.2957C4.25596 13.2957 4.9244 13.2321 5.62466 13.1048C5.62466 13.0729 5.62466 13.0729 5.62466 13.0411C5.62466 12.7228 5.65649 12.4045 5.72015 12.118C3.30105 12.5318 1.20024 12.4363 -0.0411422 10.7493C-0.200294 10.5265 -0.486768 10.4947 -0.70958 10.6538C-0.932393 10.813 -0.964223 11.0994 -0.805071 11.3223C0.277162 12.7865 1.83685 13.2957 3.61935 13.2957Z" fill="white"/>
<path d="M13.4551 10.2719C13.6142 10.5583 13.7734 10.8448 13.9325 11.1631C16.5426 10.7175 18.7389 10.8766 20.0121 12.8501C20.1395 13.0729 20.4578 13.1366 20.6806 13.0093C20.9034 12.8819 20.967 12.5636 20.8397 12.3408C19.1845 9.7944 16.4471 9.69891 13.4551 10.2719Z" fill="white"/>
<path d="M11.7043 10.431C11.2905 9.76257 10.8131 8.99864 10.4311 8.10739L9.98549 7.05698L9.53987 8.10739C9.1579 9.03047 8.68045 9.76257 8.26665 10.431C7.98018 10.9085 7.72554 11.3223 7.50272 11.736C7.34357 12.0862 7.21625 12.4363 7.18442 12.7865C7.18442 12.8819 7.15259 12.9456 7.15259 13.0411C7.15259 14.569 8.39397 15.8103 9.92183 15.8103C11.4497 15.8103 12.6911 14.569 12.6911 13.0411C12.6911 12.5 12.5001 11.9907 12.2136 11.4814C12.0545 11.1949 11.8953 10.9085 11.7043 10.622C11.768 10.5583 11.7362 10.4947 11.7043 10.431ZM11.7998 13.0411C11.7998 14.0597 10.9722 14.8554 9.98549 14.8554C8.96692 14.8554 8.17116 14.0278 8.17116 13.0411C8.17116 12.8819 8.20299 12.7228 8.26665 12.5636C8.36214 12.2135 8.58496 11.8634 8.80777 11.4177C8.90326 11.2586 8.99875 11.0994 9.12607 10.9085C9.41254 10.4628 9.69902 9.95355 10.0173 9.3806C10.3038 9.92172 10.5903 10.3992 10.8767 10.8766C10.8767 10.9085 10.9086 10.9085 10.9086 10.9403C11.0996 11.2268 11.2587 11.4814 11.386 11.736C11.6407 12.2135 11.7998 12.6591 11.7998 13.0411Z" fill="white"/>
<path d="M3.7467 6.29306C5.37005 6.29306 7.18438 5.87926 8.99871 5.40181C9.18969 5.33815 9.38068 5.30632 9.57166 5.24266C9.69898 5.21082 9.8263 5.17899 9.95362 5.14716C9.98545 5.14716 10.0173 5.14716 10.0173 5.11533C10.0173 5.11533 10.0173 5.11533 10.0491 5.11533C10.1446 5.0835 10.2401 5.05167 10.3356 5.05167C10.4947 5.01984 10.6539 4.95618 10.813 4.92435C14.7282 3.87395 18.325 3.07819 20.1075 5.84743C20.2348 6.07024 20.5531 6.13391 20.776 6.00658C20.9988 5.87926 21.0624 5.56096 20.9351 5.33815C18.8025 1.96413 14.6327 2.91904 10.4629 4.0331C10.2401 4.09676 10.0491 4.16042 9.8263 4.19225C9.69898 4.22408 9.60349 4.25591 9.47617 4.28774C5.59286 5.33815 1.93237 6.26123 0.118038 3.77846C-0.0411144 3.55565 -0.327588 3.52381 -0.5504 3.68297C-0.773213 3.84212 -0.805043 4.12859 -0.645891 4.3514C0.404511 5.78377 1.9642 6.29306 3.7467 6.29306Z" fill="white"/>
<path d="M9.57166 18.1976C5.52921 19.2799 1.74139 20.3303 -0.136601 17.7838C-0.295753 17.561 -0.582226 17.5292 -0.805039 17.6883C-1.02785 17.8475 -1.05968 18.134 -0.90053 18.3568C0.181703 19.821 1.74139 20.3303 3.49206 20.3303C5.43371 20.3303 7.66184 19.7255 9.82631 19.1207C14.0279 17.9748 18.0067 16.8926 19.8529 19.8528C19.9802 20.0756 20.2985 20.1393 20.5213 20.012C20.7441 19.8846 20.8078 19.5663 20.6805 19.3435C18.4205 15.8103 13.9006 17.0199 9.57166 18.1976Z" fill="white"/>
</svg>
