<svg width="62" height="62" viewBox="0 0 62 62" fill="none" xmlns="http://www.w3.org/2000/svg">
<g clip-path="url(#clip0_1_174)">
<path d="M32.7961 7.61239V6.26965C32.7961 5.27752 31.9921 4.47354 31 4.47354C30.0079 4.47354 29.2039 5.27752 29.2039 6.26965V7.61239C14.2087 8.36935 2.17143 18.5384 1 31.331C2.45805 30.2845 4.67015 29.6165 7.14757 29.6165C11.003 29.6165 14.2153 31.2333 14.9421 33.3786H15.2618C16.0071 31.2473 19.2098 29.6445 23.0482 29.6445C25.533 29.6445 27.7458 30.3185 29.2039 31.37V49.3828C29.2039 51.8919 27.1622 53.9333 24.6534 53.9333C22.1444 53.9333 20.1027 51.8918 20.1027 49.3828C20.1027 48.3907 19.2987 47.5867 18.3066 47.5867C17.3145 47.5867 16.5105 48.3907 16.5105 49.3828C16.5105 53.8731 20.1638 57.5265 24.6541 57.5265C29.1445 57.5265 32.7962 53.8731 32.7962 49.3828V31.3406C34.2535 30.2897 36.4656 29.6165 38.949 29.6165C42.8044 29.6165 46.0167 31.2333 46.7435 33.3786H47.0632C47.8084 31.2473 51.0111 29.6445 54.8496 29.6445C57.3286 29.6445 59.5421 30.3133 61.0001 31.3613C59.8448 18.5545 47.8017 8.37086 32.7961 7.61239Z" fill="#D0D0D0"/>
</g>
<defs>
<clipPath id="clip0_1_174">
<rect width="60" height="60" fill="white" transform="translate(1 1)"/>
</clipPath>
</defs>
</svg>
