<svg width="62" height="62" viewBox="0 0 62 62" fill="none" xmlns="http://www.w3.org/2000/svg">
<path d="M7.31172 24.3766H39.6695C45.3227 24.3766 49.9105 20.0629 49.9105 14.7684C49.9105 9.47383 45.3227 5.16016 39.6695 5.16016C34.0164 5.16016 29.4285 9.47383 29.4285 14.7684C29.4285 15.9602 30.3883 16.9199 31.5801 16.9199C32.7719 16.9199 33.7316 15.9602 33.7316 14.7684C33.7316 11.8469 36.4 9.46328 39.6695 9.46328C42.9391 9.46328 45.6074 11.8363 45.6074 14.7684C45.6074 17.6898 42.9391 20.0734 39.6695 20.0734H7.31172C6.11992 20.0734 5.16016 21.0332 5.16016 22.225C5.16016 23.4168 6.11992 24.3766 7.31172 24.3766V24.3766Z" fill="#D0D0D0"/>
<path d="M39.6695 37.6234H7.31172C6.11992 37.6234 5.16016 38.5832 5.16016 39.775C5.16016 40.9668 6.11992 41.9266 7.31172 41.9266H39.6695C42.9391 41.9266 45.6074 44.3102 45.6074 47.2316C45.6074 50.1531 42.9391 52.5367 39.6695 52.5367C38.4777 52.5367 37.518 53.4965 37.518 54.6883C37.518 55.8801 38.4777 56.8399 39.6695 56.8399C45.3227 56.8399 49.9105 52.5262 49.9105 47.2316C49.9211 41.9371 45.3227 37.6234 39.6695 37.6234V37.6234Z" fill="#D0D0D0"/>
<path d="M54.6883 22.6996C53.4965 22.6996 52.5367 23.6594 52.5367 24.8512C52.5367 27.2559 50.0477 29.207 46.9891 29.207H7.31172C6.11992 29.207 5.16016 30.1668 5.16016 31.3586C5.16016 32.5504 6.11992 33.5102 7.31172 33.5102H46.9891C52.4207 33.5102 56.8398 29.6289 56.8398 24.8512C56.8398 23.6594 55.8801 22.6996 54.6883 22.6996V22.6996Z" fill="#D0D0D0"/>
</svg>
