<svg width="163" height="36" viewBox="0 0 163 36" fill="none" xmlns="http://www.w3.org/2000/svg">
<path d="M1.17702 25.3057C1.65054 25.3057 1.94818 25.4882 2.06994 25.8533C2.1917 26.2184 2.25258 26.8201 2.25258 27.6584C2.25258 28.4968 2.36758 29.281 2.59757 30.0112C2.82756 30.7414 3.14549 31.3566 3.55136 31.8569C4.37663 32.8575 5.51984 33.3578 6.98097 33.3578C8.4421 33.3578 9.6056 32.8237 10.4715 31.7555C11.3373 30.6738 11.7702 29.1255 11.7702 27.1108C11.7702 24.42 10.627 22.0267 8.34063 19.9308C7.69124 19.3359 7.02155 18.7477 6.33158 18.1663C5.65513 17.5848 4.9922 16.9831 4.34281 16.3611C3.69342 15.7391 3.11167 15.0495 2.59757 14.2923C1.47466 12.6291 0.913208 10.7361 0.913208 8.61322C0.913208 6.43624 1.55584 4.67843 2.84109 3.33979C4.11282 2.01467 5.70924 1.35211 7.63036 1.35211C9.2809 1.35211 10.6338 1.90649 11.6891 3.01527C12.8661 4.2863 13.4072 6.04411 13.3125 8.28871C13.299 8.39688 13.2922 8.51181 13.2922 8.63351C13.3058 8.7552 13.2922 8.98507 13.2517 9.32311C13.2246 9.66115 13.0826 9.96539 12.8255 10.2358C12.582 10.4927 12.3114 10.6212 12.0138 10.6212C11.7296 10.6212 11.4861 10.4927 11.2832 10.2358C11.0803 9.96539 11.0126 9.61383 11.0803 9.18113C11.2561 8.19405 11.3441 7.45036 11.3441 6.95006C11.3441 6.43624 11.2494 5.94946 11.06 5.48973C10.8841 5.02999 10.627 4.62434 10.2888 4.27278C9.55824 3.52909 8.61121 3.15725 7.44772 3.15725C6.16246 3.15725 5.11396 3.5967 4.30222 4.4756C3.40931 5.44916 2.96285 6.64583 2.96285 8.0656C2.96285 9.48537 3.11844 10.6347 3.4296 11.5136C3.74077 12.379 4.14664 13.1633 4.64721 13.8664C5.16132 14.5695 5.74306 15.2118 6.39246 15.7932C7.04185 16.3746 7.69801 16.9493 8.36093 17.5172C9.03738 18.0851 9.7003 18.6733 10.3497 19.2818C10.9991 19.8767 11.5808 20.5393 12.0949 21.2695C13.2178 22.9191 13.7793 24.8189 13.7793 26.9688C13.7793 29.4839 13.1299 31.4918 11.8311 32.9927C10.5459 34.4801 8.82768 35.2238 6.67657 35.2238C4.67427 35.2238 3.04403 34.4531 1.78583 32.9116C0.595276 31.4648 0 29.8354 0 28.0235C0 26.2116 0.392341 25.3057 1.17702 25.3057Z" fill="#885DF1"/>
<path d="M28.5752 27.4353L28.7172 33.3375C28.7172 33.946 28.4263 34.3584 27.8446 34.5748C27.6958 34.6288 27.5199 34.6559 27.317 34.6559C27.114 34.6559 26.8976 34.5477 26.6676 34.3314C26.4376 34.1015 26.3429 33.7499 26.3835 33.2767C26.424 32.7899 26.4714 32.3099 26.5255 31.8366C26.5796 31.3634 26.627 30.8834 26.6676 30.3966C26.7623 29.2608 26.8096 28.3751 26.8096 27.7396C26.8096 27.1041 26.8029 26.5564 26.7893 26.0967C26.7758 25.637 26.7555 25.1637 26.7284 24.6769C26.7149 24.2848 26.6946 23.8453 26.6676 23.3586C26.2211 22.2227 25.7273 21.0126 25.1861 19.728C24.4962 18.0513 23.7791 16.307 23.035 14.4951C19.9775 7.13937 18.4487 3.15725 18.4487 2.54877C18.4487 2.21073 18.5502 1.9403 18.7531 1.73747C18.956 1.53465 19.2131 1.42648 19.5243 1.41295C19.8489 1.39943 20.0992 1.50761 20.2751 1.73747C20.451 1.95382 20.708 2.65694 21.0463 3.84685C21.398 5.03675 21.9121 6.57146 22.5886 8.45096C23.265 10.317 23.9482 12.1018 24.6382 13.8055C25.5447 16.0636 26.5661 18.4637 27.7025 21.0058C27.9055 20.4514 28.1219 19.8632 28.3519 19.2412C28.7443 18.2271 29.1434 17.1657 29.5492 16.0569C29.9686 14.9346 30.388 13.792 30.8074 12.6291C31.2404 11.4528 31.653 10.3034 32.0453 9.18113C32.9924 6.43624 33.5944 4.61082 33.8515 3.70487C34.1085 2.7854 34.325 2.15664 34.5009 1.8186C34.6767 1.46704 34.9406 1.29126 35.2923 1.29126C35.9417 1.29126 36.2664 1.60902 36.2664 2.24453C36.2664 2.73131 35.7794 4.23222 34.8053 6.74724C33.8447 9.26226 33.2224 10.9187 32.9383 11.7164C32.6677 12.5007 32.4039 13.2444 32.1468 13.9475C31.8898 14.6371 31.6124 15.3808 31.3148 16.1786C31.0171 16.9628 30.706 17.7741 30.3813 18.6125C30.0701 19.4373 29.7725 20.2283 29.4884 20.9855C29.1637 21.7968 28.8931 22.4797 28.6766 23.034C28.609 25.4409 28.5752 26.908 28.5752 27.4353Z" fill="#885DF1"/>
<path d="M57.3127 2.83273C57.2315 9.5665 57.1909 14.3329 57.1909 17.1319C57.1909 19.9173 57.1909 21.9658 57.1909 23.2774C57.2044 24.5755 57.218 25.8127 57.2315 26.9891C57.2585 29.4771 57.2856 31.1808 57.3127 32.1003C57.3533 33.0063 57.333 33.5471 57.2518 33.7229C57.1706 33.8987 57.0624 34.0474 56.9271 34.1691C56.3724 34.6694 55.7839 34.7167 55.1616 34.3111C54.918 34.1488 54.7422 33.9054 54.6339 33.5809C53.4434 30.0923 52.0093 26.3063 50.3317 22.2227C48.6541 18.1257 47.4838 15.2321 46.8209 13.5419C45.6168 10.4724 44.5683 7.65995 43.6754 5.10436L43.9392 33.3984C43.9392 33.8175 43.831 34.1285 43.6145 34.3314C43.3981 34.5342 43.1478 34.6356 42.8637 34.6356C42.5931 34.6356 42.3361 34.5274 42.0925 34.3111C41.8625 34.0812 41.7543 33.7432 41.7678 33.297C41.9031 29.5785 41.9708 25.3395 41.9708 20.5799V8.55238C41.9708 6.45652 41.9572 4.65139 41.9302 3.13696C41.9302 2.63666 42.079 2.25806 42.3766 2.00115C42.6878 1.73071 43.0125 1.5955 43.3507 1.5955C44.1084 1.5955 44.6089 1.95382 44.8524 2.67047C45.096 3.38711 45.441 4.35391 45.8874 5.57086C46.3339 6.77428 46.8344 8.11968 47.3891 9.60706C47.9438 11.0809 48.5391 12.6494 49.175 14.3126C49.8108 15.9622 50.4467 17.6119 51.0826 19.2615C51.7184 20.8976 52.334 22.4864 52.9293 24.0279C53.5245 25.5694 54.0657 26.9688 54.5527 28.2264C55.0398 29.4839 55.4524 30.5588 55.7907 31.4513C55.8042 31.4918 55.8177 31.5256 55.8312 31.5527C55.723 28.9024 55.6351 26.0156 55.5674 22.8921C55.4998 19.0925 55.4389 16.2462 55.3848 14.3532C55.3442 12.4601 55.2968 10.5468 55.2427 8.61322C55.2021 6.66611 55.148 4.73928 55.0804 2.83273C55.0804 2.40003 55.1954 2.08228 55.4254 1.87945C55.6689 1.6631 55.9327 1.55493 56.2168 1.55493C56.5009 1.55493 56.7512 1.6631 56.9677 1.87945C57.1977 2.08228 57.3127 2.40003 57.3127 2.83273Z" fill="#885DF1"/>
<path d="M103.084 25.6708C103.192 28.9295 103.273 31.4377 103.328 33.1956C103.341 33.6553 103.226 34.0001 102.983 34.23C102.753 34.4463 102.495 34.5545 102.211 34.5545C101.941 34.5545 101.697 34.4531 101.481 34.2502C101.264 34.0339 101.156 33.6959 101.156 33.2361V28.6523L101.136 22.3647V16.7262C101.136 13.0483 101.102 10.7091 101.034 9.70848C100.98 8.70788 100.94 7.95066 100.913 7.43684C100.886 6.92302 100.852 6.40244 100.811 5.87509C100.771 5.33423 100.73 4.80688 100.689 4.29306C100.662 3.77924 100.696 3.42768 100.791 3.23838C100.899 3.04907 101.028 2.91386 101.176 2.83273C101.325 2.73807 101.481 2.67723 101.643 2.65018C101.806 2.62314 102.15 2.54201 102.678 2.40679C104.342 2.00115 105.817 1.79832 107.102 1.79832C108.387 1.79832 109.476 1.96058 110.369 2.2851C111.262 2.60962 112.027 3.10316 112.663 3.76572C114.015 5.15845 114.692 7.14613 114.692 9.72876C114.692 13.2444 113.461 16.4693 110.998 19.4035C109.01 21.7698 106.372 23.8589 103.084 25.6708ZM103.023 23.7439C109.558 20.2013 112.825 15.5904 112.825 9.9113C112.825 6.7878 111.743 4.77984 109.578 3.88741C107.968 3.22485 106.013 3.2857 103.713 4.06996C103.443 4.16461 103.185 4.25926 102.942 4.35391C102.847 6.7202 102.8 9.15409 102.8 11.6556V17.7809C102.8 18.0378 102.807 18.288 102.82 18.5313C102.834 18.7747 102.84 19.0384 102.84 19.3224C102.854 19.5928 102.868 19.9511 102.881 20.3973C102.908 20.83 102.935 21.3776 102.962 22.0402C102.976 22.5135 102.996 23.0814 103.023 23.7439Z" fill="#885DF1"/>
<path d="M123.217 1.8186C123.596 1.8186 126.031 1.76452 130.523 1.65634C131.145 1.65634 131.571 1.89297 131.801 2.36623C131.855 2.50145 131.882 2.65694 131.882 2.83273C131.882 3.00851 131.781 3.19105 131.578 3.38035C131.375 3.55613 130.996 3.63726 130.442 3.62374C129.887 3.61022 129.346 3.58994 128.818 3.56289C128.304 3.53585 127.824 3.51557 127.377 3.50205C126.579 3.475 125.896 3.46824 125.328 3.48176C125.219 6.59174 125.165 9.96539 125.165 13.6027C125.165 17.4969 125.165 20.1675 125.165 21.6143C125.179 23.0476 125.199 24.42 125.226 25.7316C125.267 29.085 125.307 31.573 125.348 33.1956C125.361 33.6553 125.253 34.0001 125.023 34.23C124.807 34.4463 124.563 34.5545 124.293 34.5545C124.036 34.5545 123.779 34.4531 123.521 34.2502C123.278 34.0339 123.156 33.7161 123.156 33.297L123.136 30.64L123.339 11.2702C123.339 7.65995 123.291 5.0638 123.197 3.48176C122.48 3.46824 121.627 3.49529 120.64 3.56289C119.476 3.64402 118.631 3.70487 118.103 3.74544C117.589 3.77248 117.224 3.68459 117.007 3.48176C116.791 3.27894 116.683 3.04907 116.683 2.79216C116.683 2.52173 116.791 2.25806 117.007 2.00115C117.224 1.74423 117.569 1.6293 118.042 1.65634C118.529 1.66987 118.949 1.68339 119.3 1.69691C119.652 1.71043 119.957 1.72395 120.214 1.73747C120.484 1.751 120.721 1.76452 120.924 1.77804C121.127 1.79156 121.33 1.80508 121.533 1.8186C121.749 1.8186 121.993 1.8186 122.263 1.8186H123.217Z" fill="#885DF1"/>
<path d="M139.352 6.03735C139.339 6.60526 139.325 7.26106 139.312 8.00475C139.312 8.73492 139.312 11.6962 139.312 16.8885C139.312 22.0808 139.393 27.5435 139.555 33.2767C139.569 33.7094 139.44 34.0407 139.17 34.2705C138.913 34.5004 138.635 34.6153 138.338 34.6153C138.054 34.6153 137.796 34.5139 137.566 34.3111C137.35 34.1083 137.255 33.6553 137.282 32.9522C137.309 32.249 137.336 31.2755 137.364 30.0315C137.391 28.7875 137.418 27.4624 137.445 26.0561C137.499 23.2707 137.526 20.6745 137.526 18.2677C137.526 15.8473 137.519 13.9678 137.506 12.6291C137.506 11.277 137.492 10.033 137.465 8.89718C137.424 6.38215 137.35 4.37419 137.242 2.87329C137.201 2.4406 137.276 2.12284 137.465 1.92002C137.668 1.70367 137.925 1.5955 138.236 1.5955C138.547 1.5955 138.838 1.70367 139.109 1.92002C139.379 2.12284 139.501 2.4744 139.474 2.9747C139.461 3.475 139.44 3.96854 139.413 4.45532C139.4 4.9421 139.379 5.46944 139.352 6.03735Z" fill="#885DF1"/>
<path d="M161.373 1.98086C161.494 2.1296 161.569 2.31214 161.596 2.52849C161.623 2.74484 161.474 3.23838 161.149 4.00911C160.825 4.76632 160.121 6.11848 159.039 8.0656C158.038 9.86398 156.881 11.9598 155.569 14.3532C156.38 16.7059 157.294 19.1263 158.308 21.6143C159.391 24.2916 160.162 26.1981 160.622 27.3339C161.718 30.0518 162.394 31.7217 162.651 32.3437C162.908 32.9522 163.023 33.3646 162.996 33.5809C162.969 33.7837 162.901 33.9663 162.793 34.1285C162.563 34.4531 162.293 34.6153 161.981 34.6153C161.413 34.6153 161.021 34.3381 160.804 33.7837C157.923 25.495 155.812 19.6604 154.473 16.28C152.863 19.2953 151.476 21.7224 150.313 23.5614C150.313 27.5638 150.34 30.8022 150.394 33.2767C150.407 33.7094 150.286 34.0407 150.029 34.2705C149.785 34.5004 149.514 34.6153 149.217 34.6153C148.919 34.6153 148.649 34.5139 148.405 34.3111C148.175 34.1083 148.074 33.635 148.101 32.8913C148.128 32.1341 148.162 31.0524 148.202 29.6461C148.243 28.2399 148.283 26.739 148.324 25.1434C148.405 21.9523 148.446 19.106 148.446 16.6045C148.446 14.0895 148.439 12.2708 148.425 11.1485C148.412 10.0127 148.392 8.97831 148.365 8.04532C148.297 6.46328 148.175 4.75956 147.999 2.93414C147.959 2.50145 148.067 2.18369 148.324 1.98086C148.595 1.76452 148.892 1.65634 149.217 1.65634C149.555 1.65634 149.859 1.76452 150.13 1.98086C150.414 2.18369 150.549 2.50145 150.536 2.93414C150.387 6.4092 150.313 12.3182 150.313 20.661C153.614 15.036 156.293 9.77608 158.349 4.88125C158.755 3.92122 159.046 3.18429 159.222 2.67047C159.411 2.14312 159.6 1.81184 159.79 1.67663C159.993 1.54141 160.196 1.4738 160.399 1.4738C160.601 1.4738 160.784 1.52113 160.946 1.61578C161.122 1.69691 161.264 1.8186 161.373 1.98086Z" fill="#885DF1"/>
<g clip-path="url(#clip0_221_2)">
<mask id="mask0_221_2" style="mask-type:luminance" maskUnits="userSpaceOnUse" x="54" y="-7" width="49" height="50">
<path d="M102.989 -6.20691H54.5488V42.2069H102.989V-6.20691Z" fill="white"/>
</mask>
<g mask="url(#mask0_221_2)">
<path opacity="0.0229128" fill-rule="evenodd" clip-rule="evenodd" d="M54.0981 -6.6571H103.439V42.6572H54.0981V-6.6571ZM55.4835 -5.27249V41.2726H102.054V-5.27249H55.4835Z" fill="#2B2B2B"/>
<path fill-rule="evenodd" clip-rule="evenodd" d="M90.855 30.0363L85.5662 25.1641C85.238 24.8621 85.2216 24.3508 85.531 24.0288C85.8403 23.7076 86.3628 23.6923 86.6918 23.9951L91.9805 28.8665C92.3088 29.1693 92.3244 29.6798 92.015 30.0018C91.7064 30.3237 91.1839 30.3391 90.855 30.0363Z" fill="#885DF1"/>
<path fill-rule="evenodd" clip-rule="evenodd" d="M70.6492 11.5444L65.3604 6.67293C65.0314 6.37015 65.0158 5.85963 65.3252 5.53767C65.6346 5.21572 66.1562 5.20037 66.4852 5.50315L71.774 10.3754C72.103 10.6782 72.1186 11.1887 71.8092 11.5106C71.4999 11.8318 70.9774 11.8472 70.6492 11.5444Z" fill="#885DF1"/>
<path fill-rule="evenodd" clip-rule="evenodd" d="M66.4219 29.9757L71.2759 24.688C71.5774 24.3599 72.0991 24.3323 72.4352 24.6274C72.7712 24.9226 72.7986 25.4331 72.497 25.7619L67.643 31.0496C67.3414 31.3777 66.8198 31.4053 66.4845 31.1102C66.1485 30.8151 66.1203 30.3045 66.4219 29.9757Z" fill="#885DF1"/>
<path fill-rule="evenodd" clip-rule="evenodd" d="M84.8434 9.77719L89.6974 4.48953C89.9989 4.16143 90.5206 4.13383 90.8567 4.42896C91.1919 4.72409 91.2201 5.23462 90.9185 5.56344L86.0645 10.8511C85.7629 11.1792 85.2412 11.2068 84.9052 10.9117C84.57 10.6166 84.5418 10.1061 84.8434 9.77719Z" fill="#885DF1"/>
<path fill-rule="evenodd" clip-rule="evenodd" d="M78.2007 34.9241L78.1177 27.8166C78.113 27.3751 78.4781 27.0094 78.9292 27.0048C79.3804 26.9994 79.754 27.3567 79.7595 27.7982L79.8425 34.9057C79.8472 35.348 79.4822 35.7129 79.0311 35.7182C78.5799 35.7236 78.2063 35.3664 78.2007 34.9241Z" fill="#885DF1"/>
<path fill-rule="evenodd" clip-rule="evenodd" d="M77.795 7.85379L77.712 0.746353C77.7065 0.304044 78.0715 -0.0608504 78.5227 -0.0662243C78.9738 -0.0715983 79.3475 0.285647 79.3529 0.727955L79.436 7.83539C79.4415 8.27692 79.0757 8.64259 78.6245 8.64719C78.1733 8.65257 77.7997 8.29532 77.795 7.85379Z" fill="#885DF1"/>
<path fill-rule="evenodd" clip-rule="evenodd" d="M61.3154 17.012L68.5789 17.035C69.0301 17.0365 69.3982 17.3993 69.3966 17.8411C69.3958 18.2828 69.0254 18.6433 68.5734 18.6418L61.3107 18.6196C60.8588 18.618 60.4906 18.2552 60.4922 17.8135C60.4938 17.3709 60.8643 17.0104 61.3154 17.012Z" fill="#885DF1"/>
<path fill-rule="evenodd" clip-rule="evenodd" d="M88.9805 17.011L96.2439 17.0333C96.6951 17.0348 97.0633 17.3975 97.0617 17.8393C97.0601 18.2819 96.6896 18.6424 96.2385 18.6408L88.975 18.6178C88.5238 18.6163 88.1557 18.2535 88.1572 17.8117C88.1588 17.3699 88.5293 17.0095 88.9805 17.011Z" fill="#885DF1"/>
<path fill-rule="evenodd" clip-rule="evenodd" d="M78.5737 10.3792C74.3784 10.3792 70.9648 13.7198 70.9648 17.8254C70.9648 21.9318 74.3784 25.2725 78.5737 25.2725C82.7698 25.2725 86.1834 21.9318 86.1834 17.8254C86.1834 13.7198 82.7698 10.3792 78.5737 10.3792ZM84.6286 17.8256C84.6286 21.0926 81.9122 23.751 78.5738 23.751C75.2354 23.751 72.5198 21.0926 72.5198 17.8256C72.5198 14.5585 75.2354 11.9001 78.5738 11.9001C81.9122 11.9001 84.6286 14.5585 84.6286 17.8256Z" fill="#885DF1"/>
</g>
</g>
<defs>
<clipPath id="clip0_221_2">
<rect width="36.0196" height="36" fill="white" transform="translate(60.7593)"/>
</clipPath>
</defs>
</svg>
